<svg xmlns="http://www.w3.org/2000/svg" width="1400" height="900" viewBox="0 0 1400 900">
  <defs>
    <linearGradient id="grid" x1="0" y1="0" x2="1" y2="1">
      <stop offset="0" stop-color="#1e293b" stop-opacity="0.5" />
      <stop offset="1" stop-color="#0f172a" stop-opacity="0.2" />
    </linearGradient>
    <linearGradient id="stroke" x1="0" y1="0" x2="1" y2="1">
      <stop offset="0" stop-color="#22d3ee"/>
      <stop offset="1" stop-color="#a78bfa"/>
    </linearGradient>
    <radialGradient id="glow" cx="0.5" cy="0.5" r="0.6">
      <stop offset="0" stop-color="#38bdf8" stop-opacity="0.3" />
      <stop offset="1" stop-color="#0f172a" stop-opacity="0" />
    </radialGradient>
  </defs>
  <rect width="1400" height="900" fill="#0b1222"/>
  <rect width="1400" height="900" fill="url(#glow)"/>
  <g opacity="0.5">
    <path d="M0 140h1400" stroke="url(#grid)" stroke-width="1"/>
    <path d="M0 260h1400" stroke="url(#grid)" stroke-width="1"/>
    <path d="M0 380h1400" stroke="url(#grid)" stroke-width="1"/>
    <path d="M0 500h1400" stroke="url(#grid)" stroke-width="1"/>
    <path d="M0 620h1400" stroke="url(#grid)" stroke-width="1"/>
    <path d="M0 740h1400" stroke="url(#grid)" stroke-width="1"/>
  </g>
  <g fill="none" stroke="url(#stroke)" stroke-width="2">
    <path d="M200 200 C 360 120, 520 120, 680 200 S 1000 280, 1160 200"/>
    <path d="M200 260 C 360 180, 520 180, 680 260 S 1000 340, 1160 260"/>
    <path d="M200 320 C 360 240, 520 240, 680 320 S 1000 400, 1160 320"/>
  </g>
  <g fill="#e2e8f0" opacity="0.2">
    <circle cx="240" cy="520" r="80"/>
    <circle cx="1160" cy="520" r="80"/>
  </g>
  <g fill="#e2e8f0" opacity="0.4">
    <circle cx="700" cy="520" r="28"/>
  </g>
</svg>
